<mxfile host="65bd71144e">
    <diagram id="HIP3nbAZw_EuaXWnEj3U" name="Page-1">
        <mxGraphModel dx="1330" dy="998" grid="1" gridSize="10" guides="1" tooltips="1" connect="1" arrows="1" fold="1" page="1" pageScale="1" pageWidth="850" pageHeight="1100" math="0" shadow="0">
            <root>
                <mxCell id="0"/>
                <mxCell id="1" parent="0"/>
                <mxCell id="5" value="" style="shape=image;verticalLabelPosition=bottom;labelBackgroundColor=default;verticalAlign=top;aspect=fixed;imageAspect=0;image=data:image/png,iVBORw0KGgoAAAANSUhEUgAAAPwAAANUCAYAAACXDEB5AAAABHNCSVQICAgIfAhkiAAAIABJREFUeJzs3X90W+Wd7/u3AmmR+ZEEayW4psH2XMYmDCS4yT1Q2+dQt8W+HKbNOEMwOKZzh9XaEDppFz/WmsNJ6NiTw8xJpplMYZpw25U72D5tySRlDr/MHZKZaaSSRVwPLRDLkElMwIEkUhKHqVQy0Of+Ie0dybFjyZa0Je3Pay2tRFvS1mPt/dH30d772dtDYbsUKBt3u8zRFp3faeD9cbcPHW2RuIrH6QakaSlwK/BfgRryO9ypOg0EgeeBF4ABZ5sjxawQAn9rwq0y8YGLL76YsrKypNvcuXMdaWQqTp06xfvvv590+/Wvfz3+aYeIBd+6ibjCPcDbgLFuV111lbn33nvNs88+a06dOmWKwalTp8yzzz5r7r33XnPVVVeZxL83/vff49gSEMmBPyTWrTWAWbp0qVm3bp3Zu3ev09nMib1795p169aZpUuXJgZ/IP65iBSNW4DdxFfy6upqs23bNqfz56ht27aZ6urqxODvjn9OIgXtYeIrdVlZmfnrv/5rp7OWVzZv3mzKysoSg/+wo0tLZAZ+QHxFfvTRR82ZM2eczldeOnPmjHn00UcTQ/8DR5eaSJoqgZ8BZvbs2aavr8/pTBWEvr4+M3v2bCv0P2PcnguRfPQF4APALFq0yOzbt8/pHBWUffv2mUWLFlmh/yD+eYrkpSpgFDDLly83Y2NjTuenII2NjZnly5dboR+Nf64ieeUC4OeA+cpXvuJ0ZorCV77yFSv0P49/viJ540eAWbx4sTl9+rTTWSkKp0+fNosXL7ZC/yOHl6+I7S8AM3fuXPP66687nZOi8sYbb5i5c+daof8Lh5ezCMuJ7056/vnnnc5HUXr++ecTd9ktd3Rpi+sNAGbjxo1O56Kobdy4MfFQXBFHdAKmpqbG6Ty4Qk1NjRX6ToeXu7jQ7FmzZr0PmN7eXqez4Aq9vb0GMPHPfbbDy19c5s8A84UvfMHpHLjKF77wBavK/5nDy19cZC7wMWB27drldAZc5eWXX7YC/3F8OYgAMCuL8/594IIvf/nLNDY2ZvFtZLwvfvGLfPnLX4bYgTi/73BzJI9kO/D8/u9rfXNCwueuBSC2bJ3T7kKPx/NrY8ynDh06REVFRZbeRiYzMjJCZWUlHo/njDHmYmLde3G5bFX43zfGfOqmm25S2B1SUVHBTTfdhDHmU6jKS1zWAg/qzjtN3XoZL1uB/xIo8E5L+Py/5GQ7JH9kK/CfAfjd3/3dLM1++rq7u/F4PPYtEAgkPdbX1zeteU7nddmW8Pl/xsl2SP7IRuDLgAvmz5/Ppz71qSzMfvq6u7sZHR0lEolgjCEYDLJ69eqk0BeTT33qU8yfPx9iu+fKHG6OFKnPAWbJkiWOHnwyXiQSMR0dHecc4tvV1WW6urrsQ1JJOAw4cdrixYtNMBi053PHHXcYwKxbt+6c1+WTJUuWWO37nFMrhOSPC7Mwz88AfOYz+dWL9Hq9NDQ0sGrVKg4ePMjatWsB7H8BDh48SFVVFW1tbQQCAXp6egiFQpSWltLd3c3TTz/Ngw8+CMC1116LMQaACy+80H5dvvnMZz7Da6+9BrHl8guHmyMOy0aXPi8DD9DW1kYoFCIQCNi/4bu7uyd8bl1dHf39/ZSWlgJQVZV8yrjx9/NVwnLIvwUiOZeNwF8B+Rl4gNLSUvr7+zHGEIlEGB0dnXCDWzQapbOz0/5iWLVqVdLjhXJ8QcJyuMLJdkh+yEbgPwA4cuRIFmY9feFwmM7OTsLhsD3N6uYfPHjwnOfv3LkTwN7A19vbm7O2ZlLCcvjAyXZIfshG4I9A/gW+tLSU8vJy/vZv/9aeFg6H6enpmbJ7bj2vECUsh/xaIOII1wQezm6gs7rpPp+P9vZ2e2NbVVUVq1atoq+vj+bmZkZGRigpKaGtrY17772X0dFRotHoOfNNfF2+UeAlUTYGz5QBR+bPn8/Ro0ezMHtJx4IFCzh27BjENtq973BzxGHZGi33MXDBRx99lHcH37jJmTNn+PSnPw3wCdnZBSsFJluH1h4BeOutt7I0e0lFwuev7rwA2Qv8ywDPPvtslmYvqUj4/F92sh2SP7IV+GdBgXdawuevBSGAznhTtHTGG5lItir8x8aYfwBVeadYn3t8OSjsAmT3JJbq1jtI3XnJNfu89C+//LKDA0TdZ9euXTovvThCV55xgK48I07RteVyTNeWE6fp6rE5pKvHSj7Q9eFzQNeHl3yxnPh5355//nmnc1GUnn/+efvcevHPW8RRfwGYuXPnmjfeeMPpfBSV119/3cydO9cK+184vJxFbD8ifgbY06dPO52TonD69GmzePFiK+w/cnj5iiS5APg5YL7yla84nZWi8JWvfMUK+8/jn69IXqkCRgGzfPlyMzY25nRmCtLY2JhZvny5FfbR+Ocqkpe+QOykimbRokVm3759TuenoOzbt88sWrTICvsH8c9TJK9VAj8DzOzZs01fX5/TOSoIfX19Zvbs2VbYfxb/HEUKxg+I70569NFHzZkzZ5zOVF46c+aMefTRRxN3vf3A0aUmMgMPE1+Ry8rKzObNm53OV17567/+a1NWVpYY9ocdXVoiGXALsJv4Sl1dXW22bdvmdNYctW3bNlNdXZ0Y9N3xz0mkaNxO7KKHBjBLly4169atM3v37nU6fzmxd+9es27dOrN06dLEoA/EPxeRonUP8DZnV3pz1VVXmXvvvdc8++yz5tSpU05nMyNOnTplnn32WXPvvfeaq666KjHkJv733+PYEpCik61z2mXSrQm3pC3SF198MWVlZUm3uXPz93wPp06d4v3330+6/frXvx7/tEPACwk3kYwphMAnWkos+P8VqAEuc7Y5GXEaCALPEwu4RrpJ1hRa4Me7lNilrRJvmfwS+E78limniV3uKfH2YQbnLyIzYJxugEgmZfOstSKSZxR4ERdR4EVcRIEXcREFXsRFFHgRF1HgRVxEgRdxEQVexEUUeBEXUeBFXESBF3ERBV7ERRR4ERdR4EVcRIEXcREFXsRFFHgRF1HgRVxEgRdxEQVexEUUeBEXUeBFXESBF3ERBV7ERRR4ERdR4EVcRIEXcREFXsRFFHgRF1HgRVxEgRdxEQVexEUUeBEXUeBFXESBF3ERBV7ERRR4ERdR4EVcRIFP9gAQBdaMm74mPv2BnLdIRLLmUuAMEAFCgAHC8ftn4o+LSBF5DPiIWNit20fx6SJSZC4FfkNy4H+DqrtI0Uqs8qruIkUuscqruou4wGPENtSpukvRuDCH7/UFYDEwJ4fvORMGeDv+76MOtyVVY8AvgX9yuiHiXt8C3iF5I5hu2b29E//cRZJ4sjjvC4G/B74KcN1119HQ0MD8+fOz+JbuduzYMfbs2cPrr79uTfoH4A+Bj51rlbjFM4ApKysz27dvN5I727dvN2VlZVa1f8bh9UBc4FvEwz40NOT0+u9KQ0NDiaFX916y6h1Ald1h27dvT/xNL5IVXwDMdddd5/T6LsaY6667zgr9FxxeLyQPZGO03GKAhoaGLMxa0pWwHBY72Q7JD9kI/BxAW+PzRMJyKJTjHySLNB5exEUUeBEXUeBFXESBF3ERBV7ERRR4ERdR4EVcRIEXcREFXsRFFHgRF1HgRVxEgRdxEQVexEUUeBEXUeBFXESBF3ERBV7ERRR4ERdR4EVcRIEXcREFXsRFFHgRF1HgRVxEgRdxEQVexEUUeBEXUeBFXESBF3ERBV7ERRR4ERcp+MAPDw+zZMkSPB4PHo+HJUuWMDw87HSzCIfD3HnnnXnRFhFLQQc+EAhQU1PDE088gTEGYwxPPPEEa9asIRwOO908kbxTsIGPRqP09PTQ29tLXV2dPb22tpaKigqCwaD9vM7OTrsHEAgEgFjP4M4775zwMYh9mVjTOzs7iUaj9rxaW1vt54fDYZqbm+3ndnd3E41GeeSRR/jxj3/MHXfcwfDw8KTtEMmlgg384cOHOXToEEuXLk2a7vV62bJli/0lsHHjRsrLyzHG4Pf7Wb16td3NHhoaoqGhAWMMXV1d9PT0EI1GGR4epquri2AwSCQSsedjufbaazHGUFtbyyOPPEJ7ezvGGILBIH6/n8OHD7N+/XpaW1v5yU9+QnV19XnbIZIrBRt4gMsvvxyfzwdwTqXt6+sjHA4TCARobGwEYtX/xhtvJBQKAbBgwQL7C8N6DsDAwACVlZUsXLgQr9dLe3s7o6OjRKNRAKqqqoCzXy5tbW0A+Hw+Lr/88nPaOVU7RHKloAN/4sQJOzSlpaX09/fb1TpRfX09Ho+HkpIStm7dysjICJD8hTHe1q1bKSkpwePxUF9fz8jIiB34iooK+3mJXX+fz8fQ0NCk7Z2sHSK5UrCBX7hwIZWVlQwMDJz3efPmzSMYDNob9YwxdkU+n66urqTX9Pf3n1O9w+Ew3d3d+P1+jDGEQiGuueaajLZDJJMKNvBWV3vVqlXnbGxbt24dEKv6ixYt4umnnwbO7sKbaoPZ0qVL8fv99m/s7u5ue8Pd+fT3909Y4afbDpFMK9jAA9TV1REKheju7ra71atXryYYDNrV88EHH2R0dBSPx0NNTQ0PPfRQ0lb9iVRXV7Nu3TpqamrsLerr16/H6/UmPa+0tJT29na7q/7rX//a/m1eUlLCnDlz7K3002mHSCF4FDDf+c53jDjvO9/5jgFMfLmIyxV0hReR9CjwIi6iwIu4iAIv4iIKvIiLFFXg+/r6UtpfngrrUN3u7u5z3mP8tOmyBtRof7zkSlEFPht27NihQS5SNBwJfKrDTCH1YaxLlizhl7/85TnvMdmw2E2bNtmvCwQC9nsnVu958+Zxyy23sGnTpgl7DYFAIKlHYVV/672ffPJJ++Qc1mMej4fm5uak8fpvvvlm0vMsiSf3SHxNIBCgqamJJUuWZKxHI+7gaIWfaphpKsNYV69ejd/v55VXXuH06dP2vK3hrJFIZMJhsfPnz8cYw4oVK1i9ejWbN28+530B7rrrLgAGBwfT/vsGBwd55ZVX8Pv9rFq1iqqqKiKRCBUVFfT399vP27lzJ7t27SIYDPLUU08xPDxMOBxmzZo19sk96urqeOSRR+xwHz16lJ/85Cds2bLlnCMARSbjaOBTHWY62TDWUCjEjTfeSG1trX1sPcSq++joKO3t7Xi9Xns4qjXQJnF+VVVVrFixgurq6gmHt1rz7e7uTvssOg0NDXi9Xnw+H62trTQ3N+P1eikvL096Xnt7O6WlpVRXV1NfX8/AwIB9Ao+amhoAVq5cydjYmD0+/4orrph0pJ/IZBwNfKrDTCcbxjrZ8NJoNJr02PiQnW9Y7ETq6uqoq6tLqsqpSPz7pvO8l156CZ/PZx9/PzQ0ZA8HrqiooKSkJK32iOTFRrt0hpkmmiwoXq836TGr4s/EypUreeqpp5K2E4x38ODBac3b+nIa386Ojg4ikYg9nPa1116jurp6Wu8hAnkS+PEmG2Y6Xk1NDSMjIwwODtrnuIOzFd36rT84OMjevXvPOR1WOqqrq7n77rvZsGFD0vS9e/dy+PBh+6w207Fnzx6i0WjSabsS/zaIbRAcv7FPJF15EfjzDTOd6nVr166lvr6ekpISamtrueyyy4DYsFiAkpIS6uvreeKJJ2ZcHVtaWujo6LDv19XVsWLFCmpqamhra6OpqWla862treWmm26ipqaGdevWUV1dTWlpKZs3b2b16tV4PB42bNjA5s2bKS0tndHfIJJpGh6bRzQ8VhLlRYUXkdxQ4EVcRIEXcREFXsRFFHgRF1HgRVxEgRdxEQVexEUUeBEXUeBFXESBF3ERBV7ERRR4ERdR4EVcRIEXcREFXsRFFHgRF1HgRVxEgRdxEQVexEUUeBEXUeBFXESBF3ERBV7ERRR4ERdR4EVcRIEXcREFXsRFFHgRF1HgRVxEgRdxkWwEfgzg2LFjWZi1pCthOYw52Q7JD9kI/C8B9uzZk4VZS7oSlsMvnWyHFLd3ALN9+3Yjztm+fbsBTHx5iGTNtwBTVlZmhoaGnF7vXWloaMiUlZVZgf+Ww+uDuMAzxEOvSp9b27dvTwz7Mw6vB5JHPFmc94XA3wNfBbjuuutoaGhg/vz5WXxLdzt27Bh79uzh9ddftyb9A/CHwMfOtUrc5lvEf9PrlrPbO6gbLxPIZoUf7wvAYmBODt9zpr4TvxWKMWJb4//J6YaIFCLjdANEMklH2om4iAIv4iIKvIiLKPAiLqLAi7iIAi/iIgq8iIso8CIuosCLuIgCL+IiCryIiyjwIi6iwIu4iAIv4iIKvIiLKPAiLqLAi7iIAi/iIgq8iIso8CIuosCLuIgCL+IiCryIiyjwIi6iwIu4iAIv4iIKvIiLKPAiLqLAi7iIAi/iIgq8iIso8CIuosCLuIgCL+IiCryIiyjwIi6iwIu4iAIv4iIKvIiLKPAiLqLAi7iIAi/iIgq8iIso8CIuosCLuIgCL+IiCryIiyjwIi6iwIu4iAIv4iIKvIiLKPAiLqLAi7iIAi/iIgq8iIso8CIuosCLuIgCL+IiCryIiyjwyR4AosCacdPXxKc/kPMWiUjWXAqcASJACDBAOH7/TPxxESkijwEfEQu7dfsoPl1EisylwG9IDvxvUHUXKVqJVV7VXaTIJVZ5VXcRF3iM2IY6VXcpGhc63YBJfAa4Ln67xKE2GOBA/N/vONSGfPArYp/D28R2TYpkxCLg+7NmzTpE8gYz3fLjNgLcOenSk4LgcboBQDlwv8fj+RNjTInX66WqqoqqqipqamooKSlxun2u9t577/HOO+/w8ssvW5NuA553sElSwD4N/AIwXq/XPPzww+a9994zkn8effRRq9J/w9lVRmbC6d/w/w9Qe+utt/LYY49x/fXXO9wcScFnnG6ATJ+TXfoHgQ0LFixg7969VFRUONgUmcqVV17J6OgowLXAfoebI9Pk1OCZ/xPYALBhwwaFPc9t2bLFCvs/o7DLNDwFmM7OTqd/msoU/v3f/91ce+211u/3rzu83kgB+hJgLr74YvPGG284vT7LFP7yL//SCvvPHF5vJAOc6NLfD7B69WquvfZaB95eUvX+++/z+OOPW3cfP99zRSbSApiysjJz+PBhp4uXTOG//bf/ZlX35xxebyRDcl3h7we4//77+exnP5vjt5Z0DA8P88QTT1h3Vd0lbf83YKqrq82pU6ecLl4yhfvvv9+q7v/L4fVGCtAFwABgvve97zm9LssUXn31VePxeKzAf97ZVUcK0RrALFu2zPz2t791en2WKdx9991W2L/v8HojBWiex+M5AJi/+7u/c3pdlin84z/+owGMx+OJAr/n8LojGZaLjXb3G2N+50tf+hJ33313Dt5OZsLaUGeM+RvgDWdbI4XmKo/HcxwwP/3pT50uXjKFHTt2WNX9KKDdKEUo2xX+fmOMr6WlheXLl2f5rWSmxlX3d51tjRSa64mfCHLXrl1OFy+ZwrZt26zq/hYwx9lVR7IlmxV+NfDpP/qjP6KxsTGLbyMz9cknn9iH0BpjvgeMOdsiKTT1gLngggvMwMCA08VLprB582ZrN9yr5MdpzyRLslXh7QEyn/vc57L0FpIJJ0+eHD9AxjjYHClAtwJm3rx55q233nK6eMkUuru7rer+8hTLVYpANiq8Xd2vvvrqLMxeMuWdd97R8FeZkVbAXHXVVeaDDz5wunjJFB588EGruu90eL2RAuUHzIYNG9Ja8bq6upIuetDV1ZXS63p7e1N+rjHGBINB09raakKhkPH7/aajo8NEIpGk50QiEdPR0WF6e3vT/hsmastk0xMfT/e9MuFXv/qV8Xq91meu3SgukckufQdQd91117F69eqUXhCNRuns7GR0dJRIJIIxhkgkwujoKH19fRls2rnq6urYsmULXq83I/NrbGwkEAgQDoftaeFwmEAgkJe7JR9//HGi0SjA/wvsdrY1kiuZCryXhJNbpBqiwcFBRkZGWL9+vf0ar9dLe3s7e/bssVZIAoEAHo8Hj8dDZ2cn0WiUQCDAqlWrWLduHd3d3efMu7u7237NRI8HAgF7XonP/+M//mPGxs7uhh4eHmbJkiV4PB6am5vtQAcCAZqamliyZAmdnZ32mXeDwaD9Wuv/NTU1SX+Dx+MhEAgktcf68rOmh8Nh7rzzToaHh8/bjukIBAI8+eSTAL8Fnpji6VJEMhX4+4Hfq6ur4xvfSP3CJLt376auro7S0tKk6YnVd3h4mK6uLoLBIJFIBICNGzdSV1dHb28vXV1drF27Nun1gUDA7jVEIhE+/PBDOzgT6evrIxAIEAqF+M53vsPQ0BAQC92aNWt44oknMMZQV1fHI488Yn9JHD16lJ/85Cds2bKF8vJy6urq2L37bLHcvXs37e3thEIh+28wxtDb20tPT489n6lM1Y50jdtQNzCtmUhBykTgF3g8nj+BWHVPV1VVlf3/vr4+uwJaVWxgYIDKykoWLlxoV//R0dGUV3av18v//J//k+rq6kmfc/DgQdrb2yktLaW6upoVK1YAyRUaYOXKlYyNjdlfPFdccQU+n8+eT2Njo922cDjM/v37Wbp0KdXV1bz00kt2G9I9D/9U7UjHCy+8wI9//GM8Hs9pVN1dJxOBv98Yc+Wtt95Ka2tr2i8+ePCg/f+2tjaMMQSDQebNm2dP37p1KyUlJXg8Hurr6xkZGTnvyl5XV0dDQ4P9mvNtD4hGo9ZFFib00ksv4fP58Hg81NTUMDQ0RCgUAmLBTbzYZU1NDWNjYxw+fJj+/n7mzJnDwoULgeSfGPX19VN/MGm0Ix3jBsi8lfYMpKDNNPC/a1X3VDfUJZpoQ9dEurq6MMbYt/7+/nN+BoxnfXlEIhH27Nlzzm9mi9frpby8fNL5dHR02BsUjTG89tprk/YWSkpKmDNnDv/yL//Cnj17aG9vx+v1EggE7J8Mxhj8fv952w4QCoU4ceLEtNoxmR//+Me88MILeDye99B+d1eaaeBXG2Mua21t5dZbb037xbW1tVRUVCT9Ho1Go2zatImTJ08CsHTpUvx+v/0bvLu7O2lj20T6+vqSNtRddtllSV3v8RobG+np6SEcDjM8PMyOHTuAWMUeGRlhcHDQnu/5Nph5vV4aGhro6OhgZGTE7oInikaj9PT0TNoWaxvAwMAAR48enVY7JpMwQOZvgKNpvVhcbynwCWD8fv+M9gn39vaedz+83++3H2tqajKhUChp+vjnW/vSrddY+7nPtx/eOhagqanJfPe73016zeLFiw1gFi9ebILBoP3eE+3Ht56f2KbE9ixevNg888wzdjsS98Mnvtd3v/td09raar/fZO1I1datW63P43Vie1VE0rINMN/4xjfSWvEk9yKRiLnuuuuswHc4vN5IAWoEjNfrNb/61a+cXp9lChs2bLDCPvXGAylq0/0Nbw+Que666zLYHMm0o0ePaoCMzMhywCxYsMCMjIw4XbxkCv/9v/93q7q/4PB6I3lgOhXePoT2qquuynBzJJPefvttXR9OZuRuwFx99dXmxIkTThcvmcKf/MmfWNX9xw6vN1KAPMTOeWY2b97s9LosUxgYGDAXXHCBFfj0D+0T1/smYD73uc+Zjz/+2On1WabwR3/0R1bYtzq83kgBmhM/X7nZtm2b0+uyTGHXrl1W2H9D7PoAIml5BDCNjY1Or8uSgpaWFivwGxxeb6QAfTZ+rTGzY8cOp9dlmcJPf/pT6woyxwHtRpEkqeyWu98YM3/58uW0tLRkvUEyM+OGv77jbGuk0Pxe/Drh5h//8R+dLl4yhb/7u7+zqvsBYN4Uy1ZcaKoKv9oYc9Hdd9/Nl770pZw0SKbHGDP++nAnnW2RFJrPE6sW5tVXX3W4dslUvve971kb6gaAC5xddSRfna/C2wNkli1blqPmyHSMjY0lDpB5gth5CkRS1gyYOXPmpH2iBcm99evXW9Vd55eX85qswtvVPd3zpkluvfvuuxr+KjOyEjCf/exnzZEjR5wuXjKFhx9+2Kruzzi83kgBmKjC28Nfy8rKctwcScebb76p4a8yI18HzLXXXmv+/d//3eniJVPo7Oy0qvtTDq83UiDGV/g/gFh1v/jiix1ojqRq+/btbNmyxbqr6i4p8ST8//8A3q6oqODQoUNOtUdS8N577/Gf/tN/4siRIwDfAjY73CQpEIkVfhXA1772NYeaIqn41a9+xX333WeF/UkUdknDhQn/10CLPDY6Osrf/M3f8L3vfc+66s4vgD9xuFlSYBK79P8X8TObfvGLX6S8vJzKykpnWiVA7LJUBw4c4MCBA7z99ttEo1E8Hk/ExEbCPQ5MfhVMkRT8AfBvJFz2Sbf8uM2aNesA8H1g0eSLT+T8PBNMKwGq47dzr4boLo8Cf+bg+38IDAJDwAcOtkPEFYzTDRDJpJleLlpECogCL+IiCryIiyjwIi6iwIu4iAIv4iIKvIiLKPAiLqLAi7iIAi/iIgq8iIso8CIuosCLuIgCL+IiCryIiyjwIi6iwIu4iAIv4iIKvIiLKPAiLqLAi7iIAi/iIgq8iIso8CIuosCLuIgCL+IiCryIiyjwIi6iwIu4iAIv4iIKvIiLKPAiLqLAi7iIAi/iIgq8iIso8CIuosCLuIgCL+IiCryIiyjwIi6iwIu4iAIv4iIKvIiLKPAiLqLAi7iIAi/iIgq8iIso8CIuosCLuIgCL+IiCryIiyjwIi6iwIu4iAIv4iIKvIiLKPAiLqLAi7iIAi/iIgq8iIso8CIuosCLuIgCL+IiCryIiyjwIi6iwIu4iAIv4iIKvIiLKPAiLqLAi7iIAp/sASAKrBk3fU18+gM5b5GIZM2lwBkgAoQAA4Tj98/EHxeRIvIY8BGxsFu3j+LTRaTIXAr8huTA/wZVd5GilVjlVd1FilxilVd1F3GBx4htqFN1F3GBKuBE/F8RKWLzgVeJdelfjd8XkSJkh33ZsmXWVnqFXqQIJYX96NEd4+lsAAAgAElEQVSjCr1IkTon7MYYhV6kCE0YdotCL1I8zht2hV6keKQUdoVepPClFXaFXqRwTSvsCr1I4ZlR2BV6kcKRkbAr9CL5L6NhV+hF8ldWwq7Qi+SfrIZdoRfJHzkJu0Iv4rychl2hF3GOI2FX6EVyz9GwK/QiuZMXYVfoRbIvr8JuUehFMi8vw25R6EUyJ6/DblHoRWauIMJuUehFpq+gwm5R6EXSl7WwB4NB09raakKhkIlEIqajo8MApqurK2PvodCLpC5nlT0UCpmOjg4TCoUyPm+FXmRqWQ+7VeHfeust09TUZACzePFiEwwGM/5eCr3I5HJS2RO79KFQyLS2tmYl7BaFXnJpltMNSNF84Dlg2bJly3juueeYP784cjF//nyee+45li1bBrCM2N9ZHH+c5J1CCHzRht2i0Euu5Hvgiz7sFoVeciGfA++asFsUesm2fA2868JuUejFbQryCLpM09Z7cQOFPYFCL8VMYZ+AQi/FSGE/D4VeionCngKFXorBjMPu9/tNR0eHiUQipqury/T29k74nKamprQGwYRCIdPU1GT8fn9K0y3WCLvJHp8JhV5mysndchnf9bZ27Vra2toy0rjS0lLq6urYvXt30vRgMAhATU1NRt4nHdplJzPlVODTDns0GqWzsxOPx4PH46Gvr++c53R3d9vTh4eHWbJkCR6P55zQBgIBez6dnZ1Eo1H79a2trfb8GxsbCQQChMNh+7W7d++mrq6OkpKSpPYkzscyPDzMnXfeab8+EAic837n+3sm/OAUepkBJwI/rcq+c+dOysvLMcYQCoXYs2dPUhAThcNh1qxZw0MPPYQxJumx4eFhurq6CAaDRCIRADZu3Gg/PnfuXCKRCG1tbXYVt6p6OBxm//79rFy5ko0bNya1Z2RkhMHBwZQ/hL6+PkZHR4lEIgSDQTZs2EAgEEjptQq9TFeuA5+RbnxpaSlbtmyhtLR0wsdDoRDz5s2jubkZgJUrVzJv3jwABgYGqKysZOHChXi9Xtrb2xkdHbWrbnl5OV6v136furo6RkZGgFjw58yZw8KFC1m7di1r164FoKSkhIqKipTbH41G2bNnDw0NDXi9Xqqrq1mxYoX9PqlQ6GU6chn4GYXd+m1udYHPVw1DoRAnT56c9PGtW7dSUlKCx+Ohvr6ekZERu9pXVVUlPbexsdHuTfT09NghTfzJUFJSwtatW1P+WyyrVq2y/55169Zx8ODBtF6v0Eu6chX4jFT2tWvX2l3oxx9/nOHh4Qmf5/P57Io+ka6uLowx9q2/v3/S3oLP5+PQoUP4/X7GxsZobm4mGo2yadMm+ydDJBKho6NjyvaPr+B+vz+pHVaPIR0KvaQjF4HPSNgTN8gBzJkzB5/PN+FzFy5cyJw5c+jv7wfg6aeftiv+0qVL8fv99pdFd3f3hBvcEudVWVnJ8uXLWbRo0YRfDIODg5NW+KGhIYLBoN2NB/B6vTQ0NNDT00M0GiUcDtPc3JzyhrvxFHpJVbYDn7Fdb/fddx89PT14PB58Ph/t7e2TVmWv18u3v/1tNmzYgMfj4ZJLLrF/Y1dXV7Nu3Tpqamrsnwbr16+3f7dPNK+GhgYg1r23prW3t9td8t27d9PV1XVOBa+uruahhx6ivr6em266idraWvuxtrY2ysvLKSkpwefzUVdXN6Ndigq9OE1H0DlAB+eIExR2Byn0kksKex5Q6CUXFPY8Mi70uuX37Z8nTFQBWADsQ6F31Liw74svF8lfZuqn5C+F3kEKe0Eq6MCDQu8Ihb1gFXzgQaHPKYW9oBVF4EGhz4kpwl4K9APjj+yZbLrkXtEEHvI49H6/f8Ktpn6//7yP5ZMUK3s18FL8X8va+E2cV1SBhzwOfSFLsxvfBmwBvMSC/yNiVR5iwbfmk1jx6xKm9yc8XzKr6AIPCn1GTeM3u9WF/zKx4NfFp4//Ingt/lgpsS+F6oTnqfufHUUZeMiz0Bdql34GG+isim0F3Bv/f2KQ18bvjw+8ZE/RBh7yLPSFZoZb462A1427P/6Lzfptb1X8xC8JybyiDjwo9NOSgV1vkwW+btJXnNWGNvJlS04C7+Rpqo8CtwED+/bt47bbbuPYsWMONif/HTt2jNtuu419+/YBDBD7/I7OcLZRYA/QTiz8ibvqxm/YA0jvPFwi46jSpyCDB9VMVtETt9InVvG2hOnq0mdP0XfpEyn056Ej6FzBVYEHhX5CCrtruC7woNAnUdhdxZWBhxmEvre3176w5ExZF43s6uo65z3GT5uu8114UmF3naLfSj+ZvNp6v2PHjknPf58tWdoaL+JY4K0txT8m9s1mHcbZH7//AbCbeOivueYavva1r0141RnrwpBLlizhl7/8pT19/MUnrddYF3jctGmT/bpAIEBzczMej4fu7m57HvPmzeOWW25h06ZNE563fvzFIfv6+uju7rbf+8knn7SvTmM95vF4aG5uTrou3ptvvmk/7/vf/35i2N+If1YfkHwcex2xgTCvoS3nkganK/ybgAcYBNYDPfH7NcASYA3wxokTJ/D7/Rw9epSuri77Ag7Dw8OsXr0av9/PK6+8wunTp+0ZWxeIjEQi+P1+Vq9ebVfqoaEh5s+fjzGGFStWsHr1ajZv3kwwGEy6SAXAXXfdBZDWhSItg4ODvPLKK/j9flatWkVVVRWRSISKigr7IhkQu1Dmrl27CAQC/Omf/qkV9teA40BH/DMJxD8jK9wLgDuATmL70kWm5HTgrYM4osRWXOvSKyHgBBAmtsKfPnjwILfddhs33HCD/eJQKMSNN95IbW2tfXEIiFX30dFR2tvb8Xq91NbWcuONNzIwMADAggULWLp0KRC7ltyKFSuorq7G5/Nx+eWXJzXQmm93d/ekV6udjHUdOp/PR2trK83NzXi9XsrLy5Oe197ezieffMK3vvUtxsbGAA4B64AzQDD+tKeBOUBJ/P4H8c9JJGVOB34k4f+JwzBDwDXx6WFi3fvX9u3bx8MPP2x3oSe72mo0Gk16bHzILr/88kkvUzWRuro66urqkqpyKlK9ouycOXMSu/GjwEZiX3hNxD4LQyz41wBWw0eASFoNknzyALFCt2bc9DXx6Q9k402dDryllNjRXfXEuq8+YCjh8d8AdwIDQ0NDvPjiixw/fnzSQHm93qTHrIo/EytXruSpp55K2k4wXrpXf4VY29asWWOFfRDYBYzFH95KrKJ74rclQG63IEq2PAlcADzG2Z5aOH7/gvjjGZcvgR+vmbMV3nKc2Nbq4PHjx2lpacHn8zEyMsLg4CDRaJSenh7gbEW3fusPDg6yd+9euxs/HdXV1dx9991s2LAhafrevXs5fPgw4XD4vJewnsjx48d58cUXrS+KQeCbwBXEtswHgQrAuiBdGzoBRTH5EPgrYuG2lunl8ft/FX884/Il8GFiG+z8xLqvFwN7Odt9tRwFHgaO/+IXv6C9vZ3777+f+vp6SkpKqK2t5bLLLgPgwQcfBKCkpIT6+nqeeOIJqqtnNqy7paUl6bLQdXV1rFixgpqaGtra2mhqakp5XqdPn6alpYXjx48DvAN8mtiGuS5iVTxMrHv3BLHP5KH4/fQ2JEg++x+cu//dxKdLgoI+Ik8H1UiCx4CPiK0LH8XvywQKMvQKu4xzKbFtVCb+76XONie/FVToFXaZxGPEdsFmvbp7sv0GObAAeA5YumzZMp577jnmz8+/C6XqcNmsuxq4Drje6YZMw6eA5cAzxIKfCb8CDgBvU4QHZuV1pVdlz5rfA37q8XiOkdsrvRbSbYTYLm2gOCq8JS8rvSp71nwD2ASUzJs3j6qqKqqqqli0aJHT7coL7733Hu+88w4vv/yyNelrwFMONikr8qrSq7JnzQ+IV7AHH3zQ0WWc77Zt22atfzudXWTZkxehV9izpol42H/4wx86smwLycmTJxO790XL0dAr7FnVD5hHHnkkp8u0UO3du9daD3/m8HLLOkdCr7Bn1T3El2cmzmrkBhs3brTWxfUOL7ucyGnoFfbsmjVr1j8B5plnnsnqciwmN9988yfE1sfUj/sucDkJvcKedZ8HzA033JCV5VeMAoGAtT7aZ2/Jl8Ez2ZT1c+Rp11tOtACsWLHC6XYUjJ077Q3zO5xsh1OyUulV2XPiotmzZ78LmP3792dkuRW7aDRqrrzyyjPE1svxQ81dI6OhV9hz5i7AtLS0ZCgOxa+vr89aL11Z3RNlJPQKe07tAExfX1+GY1G8WlparHXzLoeXXV6YUegV9py6BjCVlZUmGo1mKR7FZf/+/da6eRC4KPHDdMNGu4lMe0OeNtDlXAvEzjZ00UUXTfVcIWlj3U5iY+wlLq1Kr8qeex6P5zXABAKBHNXHwnf99ddb+94/7/Diy4hqYhdpaBs3fe0E01KRUugVdkfcCpjGxsYcR6ZwPf/889Y6umuiD7SQu/TtZOYMrlN279WNd4zdnZfUjOvOF4Vq4EfErqm2NmH6+Aq/lrOjhFKp/BNWelV2x5TNmjXr9Ny5c82RI0ccrpuF4ciRI+aSSy75GDgJlDm9ADPFCvzvxv+1zj2dGPjEc7hbPwHqUpj3OaFX2B2zGjD33HOP0zkqGI8//ri1rv5gsg+1kLv0YWJnuPk25149tYrYee7DxM7xvgNoTGGe53Tv1Y13jLrzaUqlO1/IgYezf1htwjQvUD7ueelcAyop9CjsTvg80HjDDTdw6623Ot2WgvDzn/+c3bt3A/wr8MJkzyv0wEeJVfK1nA15lNgFGRNVpTlfK/SgsDtBA2XSlOpAmUIPPMQuzxQgdllpy0HObsWvBlYQuwJtOo6O+1dy4yKPx/OHoO58qn7zm9+wffv238bvnnfr/IU5aE8u/C3JG+X6iFV166qcq4h9KUj+azHGXNXS0sI117h2kFdadu7cyeHDh2cRC/vQVM+XyRX1if/ylAbKpEkDZTJHgc+taQ2U6e3tNb29vcbv95uOjg77fHehUMg0NTXZZ21NfCzXurq6TG9vr/1/v99vent7TVdX14zme76BMhMpht/wUjxmPFCmvLwcr9dLOBymra2N9vZ2jDEYY2hoaODb3/420Wj+XHmpqird7cnJ0h0oo8BLPlkB6W+sq6iooKKiAp/Px/XXxy4t19/fT0VFRdK8rP8PDsZO8TY8PMySJUvweDw0NzcTDocBCAQCNDU1sWTJEjo7O9m9e3fS/Wg0SiAQwOPx4PF47GmW7u5u+7FAIEBfXx/r1q1j1apV9PX1cf311+Pz+ex2z8SOHfZG+aI5lNZJ6tLnTsYGykQiEdPR0WF3oSdidfcTu9lWl9/v95vFixebYDBojDHn3A8Gg+aWW24xwWDQfi+ra57YTQ8Gg6a1tdWEQqGkLn2mTDVQZiKq8JIvMn5k3fmqZygUYt68eTQ3NwOwcuVKDh06xOHDhwG44oor8Pl89vMT7w8MDFBZWcnChQvxer20t7czOjrKiRMn2LNnD42NsYM6q6ur+dGPfkRpaSbGeJ1rOgNlFHjJB2XAH1522WUmk4EfGRmZ9LFQKMTJkyft+z6fj8svv9y+X1FRQUlJyaT3t27dSklJCR6Ph/r6ekZGRgiHw+d9z0x6//332b59uwHGUOClwLQAc26//XZPWdnMB3l5vV4aGhrYs2fPORvouru7CQQC+Hw+5s2bZ08PhUKcOHEi5ffo6uqyNwYaY+jv7+fKK6+c8W/yVO3cuZPTp097gL8H3k/1dQq85IOMd+ebm5sZGRlJ7PbS19dHIBCgpqYGn8/HyZMn6e/vB+Dpp5+2u+lTWbp0KX6/n+HhYSD2JdLZ2QnE9hLEj2lneHiYpqYm+3mZVIzj3vOBNtplX9auKDN+P3xTU5MJhUL248Fg0CxevPicx8bvzx9/35o20XytjXjWY36/3xgT25gHZGTD3URXlJHMUOCzbyNg/vzP/3zGQXCLBx54wAr8Iw4vu6KjwGfXRcSOENMVZVIUjUZNZWWlFfi0BxvoN7w4qQWo1ECZ1O3cuZNDhw7BNAfKKPDipBWgce/pSDiyzvWXkMoGdemz5xrALFy48BNdUSY11kAZj8czQgoDZSaiCi9OaQG4/fbbZ+mKMqmxdsUZY/6eaV5RplhOgJFNqvJZpLPapE4DZbJPYc8OXVEmTdMZKDMRdenFCToFdZp0ZF1uqMJnXhlw8pJLLvlYV5RJzZEjR8zcuXPNrFmzTjPDK8roN7zkWgsw94477iATA2XcYOfOnZw6dQrgadIYKDMRdekl19SdT5O687mjLn1mfR4w119//SdOd5MLhTVQxuPxvJaJBaAKL7nUArBy5UqtdylK2Pe+3eGmuIIqfOZooEyaZjpQZiL6ppVc0UCZNM10oMxEFHjJFQ2USZMGyuSeuvSZcQ1grrzyyjMaKJMaa6DM7Nmz32WaA2UmogovudACcMcdd8zWQJnUWBvr/uM//uMnTHOgzEQUeMmFaV1Rxs00UMYZ6tLP3C2Aufnmm7XvPUXPPPOMAcysWbP+KdMLQxVesm0ZwFe/+lWtaymIRqOsX78egN/+9re9mZ6/FoJk238GuPnmmx1uRmFYv349+/btA3gJ+KHDzXEddelnzgBmbGzM6Z5y3tu6dat9PnugydnF5k4K/MxtI0MXYChm3/zmNxPD/oNsLQxPtmZcJAz6jGbqTuB/AXzxi1+kvLycyspKh5uUHw4cOMCBAwd4++23revaRYG1wF852zL3UoXPjD8A/o2zFUy3hJvH43kfeAa4YdqfcIpUvc5PFT5zSoDq+K3G4bbkiwFgP7FBRZIHVOGlqGi3nIiLKPAiLqLAi7iIAi/iIgq8iIso8CIuosCLuIgCL+IiCryIiyjwIi6iwIu4iAIv4iIKvIiLKPAiLqLAi7iIAi/iIgq8iIso8CIuosCLuIgCn+x/EzuP3fgL+O2MT//fOW+RiGRNGWdPH/zbcf+a+OMiUkReYeLzh7/iZKNEJDsSq3ziTdVdpEiNr/Kq7iJFbHyVV3UXKXJWlVd1F3GB64GP4v+KSBFbAOwjVuH3xe+LSBGyw75s2TLrN7xCL1KEksJ+9OhRhV6kSJ0TdmOMQi9ShCYMu0WhFyke5w27Qi9SPFIKu0IvUvjSCrtCL1K4phV2hV6k8Mwo7Aq9SOHISNgVepH8l9GwK/Qi+SsrYVfoRfJPVsOu0Ivkj5yEXaEXcV5Ow67QizjHkbAr9CK552jYFXqR3MmLsCv0ItmXV2G3KPQimZeXYbco9CKZk9dhtyj0IjNXEGG3KPQi01dQYbco9CLpy1rYg8GgaW1tNaFQyEQiEdPR0WEA09XVlbH3UOhFUpezyh4KhUxHR4cJhUIZn7dCLzK1rIfdqvBvvfWWaWpqMoBZvHixCQaDGX8vhV5kcjmp7Ild+lAoZFpbW7MSdotCL7k0y+kGpGgB8BywdNmyZTz33HPMnz/f6TZlxPz583nuuedYtmwZwFJif6dCL1lRCIEv2rBbFHrJlXwPfNGH3aLQSy7kc+BdE3aLQi/Zlq+Bd13YLQq9uE1BHkGXadp6L26gsCdQ6KWYKewTUOilGCns56HQSzFR2FOg0EsxmHHY/X6/6ejoMJFIxHR1dZne3t4Jn9PU1JTWIJhQKGSampqM3+9PabrFGmE32eMzodDLTDm5Wy7ju97Wrl1LW1tbRhpXWlpKXV0du3fvTpoeDAYBqKmpycj7pEO77GSmnAp82mGPRqN0dnbi8XjweDz09fWd85zu7m57+vDwMEuWLMHj8ZwT2kAgYM+ns7OTaDRqv761tdWef2NjI4FAgHA4bL929+7d1NXVUVJSktSexPlYhoeHufPOO+3XBwKBc97vfH/PRBR6mQknAj+tyr5z507Ky8sxxhAKhdizZ09SEBOFw2HWrFnDQw89hDEm6bHh4WG6uroIBoNEIhEANm7caD8+d+5cIpEIbW1tdhW3qno4HGb//v2sXLmSjRs3JrVnZGSEwcHBlD+Evr4+RkdHiUQiBINBNmzYQCAQSOm1Cr1MV64Dn5FufGlpKVu2bKG0tHTCx0OhEPPmzaO5uRmAlStXMm/ePAAGBgaorKxk4cKFeL1e2tvbGR0dtatueXk5Xq/Xfp+6ujpGRkaAWPDnzJnDwoULWbt2LWvXrgWgpKSEioqKlNsfjUbZs2cPDQ0NeL1eqqurWbFihf0+qVDoZTpyGfgZhd36bW51gc9XDUOhECdPnpz08a1bt1JSUoLH46G+vp6RkRG72ldVVSU9t7Gx0e5N9PT02CFN/MlQUlLC1q1bU/5bLKtWrbL/nnXr1nHw4MG0Xq/QS7pyFfiMVPa1a9faXejHH3+c4eHhCZ/n8/nsij6Rrq4ujDH2rb+/f9Legs/n49ChQ/j9fsbGxmhubiYajbJp0yb7J0MkEqGjo2PK9o+v4H6/P6kdVo8hHQq9pCMXgc9I2BM3yAHMmTMHn8834XMXLlzInDlz6O/vB+Dpp5+2K/7SpUvx+/32l0V3d/eEG9wS51VZWcny5ctZtGjRhF8Mg4ODk1b4oaEhgsGg3Y0H8Hq9NDQ00NPTQzQaJRwO09zcnPKGu/EUeklVtgOfsV1v9913Hz09PXg8Hnw+H+3t7ZNWZa/Xy7e//W02bNiAx+PhkksusX9jV1dXs27dOmpqauyfBuvXr7d/t080r4aGBiDWvbemtbe3213y3bt309XVdU4Fr66u5qGHHqK+vp6bbrqJ2tpa+7G2tjbKy8spKSnB5/NRV1c3o12KCr04TUfQOUAH54gTFHYHKfSSSwp7HlDoJRfmA6+isOeFcaHXLb9v/zxhogqAKnweUIUvOGbqp+Qvhd5BCntBKujAQ4GFPhgMmltuuSWrV5nJBYW9YOUk8NncD38UuA0Y2LdvH7fddhvHjh3L4tvJsWPHuO2229i3bx/AALHP/6izrZJ8ku0DbxT6HJki7KVAPzD+yJ7JpkuRysWhtQUXeutQV2tgi3Xr7u52umkTSqGyh4E1wN1AdcL0+4AAML1jekXOI69/0xfqb/g0f7O3AVsAL7Hg/4hYlQdYy9ldRIkVvy5hen/C8yWzCv43/HgFV+nz3TR+s/cDFUA98G3gcWLVvw0oB0qAGuAhYkEvBe6PT/MAPUBzFv4UyZFcnwCjIEJfCF36aW6gCwPdwP8Xvz9IrNo3AHuAKDAM7CD2xTBeH+r+yzTkdfc+381w15uXWLe+btz98Ud+WYPzq4HX4tOsnwOSeQW/H34qeRX6QvkNn4H97JMFvm7SV5zVxtkvAsmsog885Fno812GDqqZKOCJG/MSd9WN37DXhnbhZYsrAg8KfUoyeATdZBU9cSt9YhVvS5iuLn32uCbwoNCflw6XdQVXBR4U+gkp7K7husCDQp9EYXcVVwYeZhD63t5e+8KSM2VdNLKrq+uc9xg/bbrOd+FJhd11iu5Iu1Tl1cE5O3bsmPT899miUW+SLU4F3tpS/GNi32zWYZz98fsfALuJh/6aa67ha1/72oRXnbEuDLlkyRJ++ctf2tPHX3zSeo11gcdNmzbZrwsEAvaRdYlH082bN49bbrmFTZs2TXje+vEXh+zr66O7u9t+7yeffNK+Oo31mMfjobm5Oem6eG+++ab9vO9///uJYX8j/ll9QPJx7HXAS8QOiNGWc0mZ0xX+TWLHaA8C64kdq+0hduz2EmIjvN44ceIEfr+fo0eP0tXVZV/AYXh4mNWrV+P3+3nllVc4ffq0PWPrApGRSAS/38/q1avtSj00NMT8+fMxxrBixQpWr17N5s2bCQaDSRepALjrrrsA0rpQpGVwcJBXXnkFv9/PqlWrqKqqIhKJUFFRYV8kA2IXyty1axeBQIA//dM/tcL+GnAc6Ih/JoH4Z2SFewFwB9BJ7JBYkSk5HXjrYmpRYiuudZx2CDhB7NjvDuD0wYMHue2227jhhhvsF4dCIW688UZqa2vti0NArLqPjo7S3t6O1+ultraWG2+8kYGBAQAWLFjA0qVLgdi15FasWEF1dTU+n4/LL788qYHWfLu7uye9Wu1krOvQ+Xw+WltbaW5uxuv1Ul5envS89vZ2PvnkE771rW8xNjYGcAhYB5wBgvGnPQ3MITbABWJVP5RWg8T1nA78SML/E4dhhoBr4tPDxLr3r+3bt4+HH37Y7kJPdrXVaDSa9Nj4kF1++eWTXqZqInV1ddTV1SVV5VSkekXZOXPmJHbjR4GNxL7wmoh9FoZY8K8BrIaPAJG0GiT55AFihW7NuOlr4tMfyMabOh14Symxo7vqiXVffcBQwuO/Ae4EBoaGhnjxxRc5fvz4pIHyer1Jj1kVfyZWrlzJU089lbSdYLx0r/4KsbatWbPGCvsgsAsYiz+8lVhF98RvS4iNZpPC9yRwAfAYZ3tq4fj9C+KPZ1y+BH68Zs5WeMtxYlurg8ePH6elpQWfz8fIyAiDg4NEo1F6enqAsxXd+q0/ODjI3r177W78dFRXV3P33XezYcOGpOl79+7l8OHDhMPh817CeiLHjx/nxRdftL4oBoFvAlcQ2zIfJDZE1bogXRs6AUUx+RD4K2Lhtpbp5fH7fxV/POPyJfBhYhvs/MS6rxcDeznbfbUcBR4Gjv/iF7+gvb2d+++/n/r6ekpKSqitreWyyy4D4MEHHwSgpKSE+vp6nnjiCaqrq5mJlpaWpMtC19XVsWLFCmpqamhra6OpqSnleZ0+fZqWlhaOHz8O8A7waWIb5rqIVXHrtFRPEPtMHorfT29DguSz/8G5+99NfLokKOgj8nRQjSR4DPiI2LrwUfy+TKAgQ6+wyziXEttGZeL/Xupsc/JbQYVeYZdJPEZsF2zWq7sn22+QAwuA54Cly5Yt47nnnmP+/PlOt+kcOlw2664GrgOud7oh0/ApYDnwDLHgZ8KvgAPA2xThgVl5XelV2bPm94CfejyeYzh/9dd8vY0Q26UNFEeFt+RlpVdlz5pvAJuAknnz5lFVVUVVVRWLFid95isAABJuSURBVC1yul154b333uOdd97h5ZdftiZ9DXjKwSZlRV5VelX2rPkB8Qr24IMPOrqM8922bdus9W+ns4sse/Ii9Ap71jQRD/sPf/hDR5ZtITl58mRi975oORp6hT2r+gHzyCOP5HSZFqq9e/da6+HPHF5uWedI6BX2rLqH+PLMxFmN3GDjxo3Wurje4WWXEzkNvcKeXbNmzfonwDzzzDNZXY7F5Oabb/6E2PqY+nHfBS4noVfYs+7zgLnhhhuysvyKUSAQsNZH++wt+TJ4Jpuyfo487XrLiRaAFStWON2OgrFzp71hfoeT7XBKViq9KntOXDR79ux3AbN///6MLLdiF41GzZVXXnmG2Ho5fqi5a2Q09Ap7ztwFmJaWlgzFofj19fVZ66Urq3uijIReYc+pHYDp6+vLcCyKV0tLi7Vu3uXwsssLMwq9wp5T1wCmsrLSRKPRLMWjuOzfv99aNw8CFyV+mG7YaDeRaW/I0wa6nGuB2NmGLrrooqmeKyRtrNtJbIy9xKVV6VXZc8/j8bwGmEAgkKP6WPiuv/56a9/75x1efHkppdAr7I64FTCNjY05jkzhev755611dJfDyy6vnTf0CrtjfgCYxx9/3KH4FJ577rnHWk9XO7zs8t6EoVfYHVM2a9as03PnzjVHjhxxOEaF4ciRI+aSSy75GDgJlDm9AAvBOaFX2B2zGjD33HOP0zkqGI8//ri1rv7A4WVXUJJCj8LulF2Aef75553OUcFobGy01tdbHV52BccOPQq7EzRQJk0TDZSZiFv3w0/F2k8P2s/uBA2USZPbB8pkSlGfFihPXeTxeEbQQJmURaNRs3DhQmvf+3kHyqjCS75pMcZc1dLSwjXXuHaQV1p27tzJ4cOHZxE7sm7ofM9V4CXfrAB159OxY4fdiy/K7nw18BqxyycnWjvBtJlSlz63ZjRQJhgMmoceesi8++67prW11bz44oumtbXVhEIh+zldXV2mqanpnGldXV2Z6F1PKhQKmY6ODvPuu++ajo4O4/f7MzLf8w2UmUghV/h2dK30YpOxgTJz5szhd37ndwAIhUIARKNRPvzwQ4wxBINBe9ro6CiNjY0zer90XHbZZfh846+EPj3pDpQp1MAPEbuEzn3nec5azp6PO9OVX7JjBcQCPx0+n4+rr76a0tJSamtrufLKK1m0aBEDAwMAHD58OPYmK1awe/duACKRCAA1NTV0d3fT2tqKx+Ohr68PgO7ubjweT9K0aDRKZ2dn0mPd3d12OwKBQNL0zs5OPB4PtbW1lJaWcvXVV2cs8And+ZQuNFGogQf4LrCIWBd/vDagDvABNcBD8fuSv24FbmhsbOTzn5/eIK/S0lK+/vWv4/V6+cY3voHX66WxsZGDBw8CsUp/6aWX8l/+y3/hww8/JBqN2pW+pKQEgLlz5xKJRGhra6Ovr49AIEAoFCIYDLJhwwYCgYD9fqOjo0QiEfx+Pzt27GB4eJhwOEx3dzd+v59IJMLo6ChAUpu+/vWvU1o6887pCy+8wL/+678C7AZ+nsprCjnwYWLXkvs24B33WBXQE3/OMLGNGbnrs8l02N35TPL5fOzfv59wOMzu3btpbGxk4cKFQKzij4yM0NDQgNcbW4XKy8vt/x88eJD29nZKS0uprq5O6hkA9utqamrsPQrBYJCKigpqa2vxer20t7dn9O9JNK47n5JCDjyc/UNrE6Z5gfJxzzuYm+bINJUBf3jZZZeZTAd+4cKFfPazn+Xdd98FYl13r9fLpZdeSigU4uDBg1RUVNjPr6qqAs7+tk9kPWZJfJ1lZGQko+2fzPvvv8/27dsNMIaLAh8lVsnXcjbkUWB03POqkHzWAsy5/fbbPWVlmR3k5fV6Wbx4Ma+++ioffvih3XVvbGzkzTffBGJfAhO9rrw8uW5YPw3OZ6IvgWzYuXMnp0+f9gB/D7yf6usKPfAAgfitI2HaQc5uxa8mtjFo97kvlTyRle68paKigt27d7N48WK7u+7z+Thw4ABXXHHFpL+nq6qq6OnpIRwOMzw8zI4dO6bcml9TU8PIyAiDg4NEo1F6enoy/vfA9LrzABdmvimO+FuSN8r1Eavqofj9VcS+FCT/fB5ovOGGG7j11uwM8qqpqeHUqVNJ1XfhwoWcPn3arvgTaWtr4+DBg/YW9d7eXurq6ohGo5O+prS0lLVr11JfX8/ixYu57777GBw873iWtP385z+3tiX8K/BCRmfucjrwJvs2AubP//zPM3IgSr7JxkE9DzzwgLW7+RGHl13RUeCz6yJiP7+KZqBMMBg0ixcvtq/J3tHRkdEr3UajUVNZWWnNX4MNMkyBzy5dUSZNM72iTDFstJPCpYEyaSr2gTJOU4XPnmsAs3Dhwk90RZnUWANl4ucLmNZgA1V4cUoLwO233z5LV5RJjbUrzhjz90zzijIKvDhlRgNl3CjdgTKSPnXps0NXlElTpq4oowovTsjqkXXFaLpH1kl6VOEzrww4eckll3ysK8qk5siRI2bu3Llm1qxZp5nhFWWK5dBaKRwtwNw77riDTA+UKVY7d+7k1KlTAE+TxkCZiahLL7mm7nya1J3PHXXpM+vzgLn++us/cbqbXCisK8p4PJ7XMrEAVOEll1oAVq5cqfUuRQn73rc73BRXUIXPnKIbKJNt2Rgoo29ayZUWoFJXlEndzp07OXToEKRwRZlUKfCSKxookyYNlMk9dekz4xrAXHnllWc0UCY11kCZ2bNnv8s0B8pMRBVecqEF4I477pitgTKpsTbW/cd//MdPmOZAmYko8JILGiiTJg2UcYa69DN3C2Buvvlm7XtP0TPPPGMAM2vWrH/K9MJQhZdsWwbw1a9+VetaCqLRKOvXrwfgt7/9bW+m56+FINn2nwFuvvlmh5tRGNavX8++ffsAXgJ+6HBzXEdd+pkzgBkbG3O6p5z3tm7dap/tFmhydrG5kwI/c9sA09vb63Se8to3v/nNxLD/IFsLw5OtGRcJgz6jmboT+F8AX/ziFykvL6eystLhJuWHAwcOcODAAd5++21OnDgBsesirgX+ytmWuZcqfGb8AfBvnK1guiXcPB7P+8AzwA3T/oRTpOp1fqrwmVNC7MKe1cC5l2vNb48Cf5aF+Q4A+9HlzPOGKrxAEa0H2i0n4iIKvIiLKPAiLqLAi7iIAi/iIgq8iIso8CIuosCLuIgCL+IiCryIiyjwIi6iwIu4iAIv4iIKvIiLKPAiLqLAi7iIAi/iIhc63YACUDRnO5Fp+xenGyC5obBLUVGXXsRFFHgRF1HgRVxEgRdxEQVexEUUeBEXUeBFXESBF3ERBV7ERRR4ERdR4EVcRIEXcREFXsRFFHgRF1HgRVxEgRdxEQVexEUUeBEXUeBFXESBF3ERBV7k/2/vDkKbyvYwgH/Rly4sb0htCEZ5pp2FCUFJYAJSuqqdTouDIYtBK13Kw2ZVXLQbIWF2LrpoFxXkCQFpUFwMvAkZWmi7kOoE4soWaXHR4kMrJbVJhlYIzvu/RW7iTebN06e9PTf3fj84SHLD7cn536/n2JvcayMMPJGNMPBENsLAE9kIA09kIww8kY0w8EQ2wsAT2QgDT2QjDDyRjTDwjX5G9RbRPzU9/5P2/M+H3iMiMowX1WALgH83/SvadiKykF/xIeD69qvKThGRMfSzvL5xdieyqOZZnrM7kYU1z/Kc3YksrjbLc3Yny3Co7sAX+iuqs6++fXWA+/47gH8A+O2A9lkGsNXUDmrfRB/VaoGPALgI4HsAARxcuFUqA1gDkAXwC4CnartDVtYKgb+oa936De3t7fB6vQ3N5XIp6eSnKBaL2Nraamh7e3vNL9tANfi1RmQL1wC8gO6PZz6fT+LxuGQyGSkWi2IFxWJRMpmMxONx8fl8zacCX2jjQGRZP6C6rBUAEolEJJFISC6XU53NQ5HL5SSRSEgkEtEH/6k2LkSW8R2AJWgHud/vl1QqpTp/SqVSKfH7/frgL2njRNTSJqAd1F6vV6amplRnzVSmp6fF6/Xqgz+htFpEX+AutAM5mUxKpVJRnS9TqlQqkkwm9aG/q7RqRP+nbgCPAIjT6ZR0Oq06Uy0hnU6L0+mshf4Rms5cEJlRH4A3ACQYDEo+n1edo5aSz+clGAzWQv9GG08iU/oawCsAEovFpFQqqc5PSyqVShKLxWqhf6WNK5GpHAXwBIBEo1HVmbGEaDRaC/0TbXyJTOM+AAmFQlIul1VnxRLK5bKEQqFa6O8rri9R3S0A4nK5ZGVlRXVOLGV1dVVcLlct9LcU15kIMWink7LZrOp8WFI2m9WfsosprTbZ3lMAMjk5qToXljY5Oan/KC6REqMAJBAIqM6DLQQCgVroRxXXnWzIeeTIkS0AMjs7qzoLtjA7OysARBt3p+L6k838CED6+vpU58BW+vr6arP8j4rrTzbiAvAegCwuLqrOgK0sLCzUAv9eqwMRAGNvNXUJwNGBgQFcuHDBwB9Dzfr7+zEwMABUP4hzSXF3yESMDjwuXeLxpoJu3FkAqjPqmnZ/cTgceyLStrGxga6uLoN+DP2Zzc1NdHd3w+FwVESkHdXlPdmcUTP8JRFp6+npYdgV6erqQk9PD0SkDZzlSWNY4AEu51Xjsp6aGRX4bwEGXjXd+H+rsh9kHkYF/iQAnDlzxqDdf7719XWEw2E4HA44HA6Mjo7i3bt39W1Xr17Fzs6O4l4eDN34n1TZDzIPIwLvBXDU4/Ggra3NgN1/vvX1dVy5cgUzMzMQEYgITp06hRs3btRDbyVtbW3weDxA9fQcb4hJhgT+JACcPGm+SaVQKODEiRMIBAL15y5fvoyNjQ08e/YMY2NjePDgAUZGRrCzs9OwGhgaGqrP/I8fP8bo6CgmJib+sM1sdHUwX0Ho0Nkq8LWg9/f3Y319HQDg9/sxPz+P8+fPY3p6GsPDw0in0wCAsbExjI+PQ0TQ29uLmzdv1lcCd+7cQSgUqm+7ffu2mjf1EQw86dkq8J2dnZibm8P4+DgCgQAcDgfC4XA9/HqFQgEdHR0YGhoC8GEl8PLlSwDA4OBgw7bnz5+bcpZn4EnPiMCfAMwZ+JqRkZH6/+FnZmYwNjb2h7AWCgXs7u7WH7vdbhw/frz+uKurC8eOHTu0Pn8uXR1OqOwHmYMRgX8DAK9fvzZg118mnU7Xl+s1gUAAHR0dKBQKDc+73W50dHTUHxcKBbx9+7b+eHNzE/v7+/Vt+l8OZqKrwxuV/SBzMCLwrwFzBj4SieDevXsNS/i5uTns7u7C7XY3vNbtdmN3dxdzc3MAgIcPH6K7uxunT58GAMzPz2NtbQ0AsLS0hN7eXnR2dh7SO/l0ujqYryBkCd8AkHA4rOrbof/T2tqa/iqvMjg4KIVCQURECoWCDA4O1p/Tv1b/uuXlZRkeHpbh4WEBINevX5f9/X2Vb+tPhcPh2nv9RuExQRbmBSAej0f1sW6Y5eVlU4dcz+Px1ALP8/BkyJJ+C8Dv29vbqFQqBuyePlWlUsH29jYA/I5qXcjmjPp67EsAf1tZWcHZs2cN+hH0Maurqzh37hwA/AvAacXdIRMw6rP0CwCQyWQM2j19Ct34L6jsB5mHUYHPAAy8arrxZyEIAK94Y1m84g39N0bN8O9F5J8AZ3lVauOu1YFhJwDGXsSSy3qFuJynw1a/Lv3CwoLak9E2s7i4yOvSkxK884wCvPMMqcJ7yx0y3luOVOPdYw8R7x5LZsD7wx8C3h+ezCIG7dtp2WxWdS4sKZvN1r8BqI03kVK3AIjL5ZLV1VXV+bCUlZUVcblctbDfUlxnorr7ACQUCkm5XFadE0sol8v67/ffV1xfogZHATwBINFoVHVWLCEajdbC/kQbXyJT+RrAKwASi8WkVCqpzkxLKpVKEovFamF/pY0rkSn1oXpRRQkGg5LP51Xnp6Xk83kJBoO1sL/RxpPI1LoBPAIgTqdT0um06hy1hHQ6LU6nsxb2R9o4ErWMu9BOJyWTSalUKqozZUqVSkWSyaT+1NtdpVUj+gIT0A5kr9cr09PTqvNlKlNTU+L1evVhn1BaLaID8B2AJWgHtd/vl1QqpTprSqVSKfH7/fqgL2njRGQZP0D7KC4AiUQikkgkJJfLqc7focjlcpJIJCQSieiD/lQbFyLLugbgBT4c9OLz+SQej0smk5Fisag6mweiWCxKJpOReDwuPp9PH3LR3v81ZRUgyzHqmnYH6aKuNfxFur29HV6vt6G5XOa93kOxWMTW1lZD29vba37ZBoBfdI3owLRC4PUiqAb/ewABAF+p7c6BKANYA5BFNeD8phsZ5j+rBm/8jVqyCQAAAABJRU5ErkJggg==;" vertex="1" parent="1">
                    <mxGeometry x="230" y="40" width="252" height="852" as="geometry"/>
                </mxCell>
            </root>
        </mxGraphModel>
    </diagram>
</mxfile>